<?xml version="1.0" encoding="utf-8" standalone="no"?>
<!DOCTYPE svg PUBLIC "-//W3C//DTD SVG 1.1//EN"
  "http://www.w3.org/Graphics/SVG/1.1/DTD/svg11.dtd">
<!-- Created with matplotlib (http://matplotlib.org/) -->
<svg height="428pt" version="1.1" viewBox="0 0 576 428" width="576pt" xmlns="http://www.w3.org/2000/svg" xmlns:xlink="http://www.w3.org/1999/xlink">
 <defs>
  <style type="text/css">
*{stroke-linecap:square;stroke-linejoin:round;}
  </style>
 </defs>
 <g id="figure_1">
  <g id="patch_1">
   <path d="
M0 428.4
L576 428.4
L576 0
L0 0
z
" style="fill:#ffffff;"/>
  </g>
  <g id="axes_1">
   <g id="patch_2">
    <path d="
M72 385.56
L518.4 385.56
L518.4 42.84
L72 42.84
z
" style="fill:#ffffff;"/>
   </g>
   <g id="line2d_1">
    <path clip-path="url(#p495b02252e)" d="
M72 283.656
L73.2553 277.854
L77.0122 263.598
L78.2657 258.758
L79.5174 255.256
L80.7709 251.065
M87.0365 230.69
L88.29 224.463
L89.5435 217.592
M92.0505 209.648
L93.304 204.766
L94.5593 201.235
L97.0716 192.172
L98.3251 188.219
L99.5786 184.853
L100.834 180.753
L102.087 177.671
M104.596 170.556
L105.85 166.573
L108.357 161.179
L109.61 160.155
L112.117 155.093
L113.371 153.538
L114.624 151.47
L115.878 149.183
L117.131 147.569
L118.385 146.326
L119.638 144.183
L120.892 142.403
L122.147 141.055
L123.398 138.603
L124.654 135.552
L125.905 134.095
L127.157 131.412
L128.412 131.332
L129.666 127.281
L130.919 124.814
L132.173 123.939
L133.428 123.205
L134.685 120.342
L135.939 117.892
L137.192 115.104
M139.699 112.162
L140.953 111.706
L142.206 111.506
L143.458 101.94
L144.713 107.758
L145.965 106.226
L147.218 107.093
M149.725 103.756
L150.979 102.8
L152.232 100.262
L153.486 101.395
L154.739 98.7304
L155.993 96.7711
L157.246 94.5172
L158.502 94.752
L159.755 92.2808
L162.262 89.4583
L163.516 88.834
L164.767 88.0142
L166.021 84.5109
L167.276 82.0864
L168.53 83.8828
L169.783 84.4592
M172.29 81.4768
L173.54 83.6591
L174.793 80.7051
L176.047 80.8334
L177.3 79.4305
L178.554 77.3013
L179.807 78.587
L181.061 77.6492
L182.316 77.3458
L183.568 75.3178
L184.823 77.446
L186.077 76.6597
L187.33 74.443
L188.584 73.951
L189.837 78.1208
L191.091 68.7886
L192.344 77.3244
L193.599 75.7047
L194.853 75.5014
L196.106 78.408
L197.36 78.0599
L198.613 79.0277
L199.865 80.3363
L201.119 72.7109
L202.374 84.3842
L203.627 81.8237
L204.881 86.2946
L206.134 86.6416
L207.388 87.7583
L208.641 93.0432
L209.893 96.3429
L211.148 96.8031
L212.402 98.1485
L213.655 98.6011
L214.909 100.721
L216.162 101.604
L217.416 102.857
L218.669 101.432
L219.924 99.4849
L221.178 98.5683
L222.431 89.9363
L223.685 84.8141
L224.938 94.5471
L226.192 69.4143
L227.445 92.0378
L228.699 90.1145
L229.952 88.7337
L231.208 89.408
L232.461 88.2243
L233.715 88.7337
L234.968 90.2789
L236.22 89.9717
L237.473 88.6861
L238.727 93.7147
L239.979 92.6679
L241.232 94.2063
L242.486 95.3912
L243.737 95.4836
L244.991 95.2952
L246.244 95.7535
L247.496 95.311
L248.751 95.8165
L250.005 96.0722
L251.258 98.7068
L252.51 100.48
L253.763 101.19
L255.019 96.1742
L256.274 106.956
L257.527 107.464
L258.781 107.284
L260.033 108.17
L261.286 109.411
L262.54 108.265
L263.795 102.697
L265.048 107.888
L266.302 108.799
L267.555 109.225
L268.809 105.399
L270.062 110.489
L271.316 110.951
L272.569 110.847
L273.825 111.007
L275.078 112.725
L276.332 112.833
L278.839 114.235
L280.09 115.083
L281.344 116.984
L282.599 117.216
L283.853 118.23
L285.106 118.961
L287.613 120.035
L288.866 103.034
L290.12 101.048
L291.375 123.206
L292.629 123.085
L293.882 122.575
L295.136 123.72
L296.391 122.662
L297.643 123.921
L298.896 125.022
M302.653 126.019
L303.905 125.565
L305.157 125.941
L306.408 125.995
L307.663 126.785
L308.917 126.327
L310.17 126.598
L311.424 127.037
L312.677 124.453
L313.931 130.256
L316.438 130.417
L317.691 131.06
L318.945 130.351
L320.198 114.025
L321.452 133.697
L322.705 132.289
L323.959 131.513
L325.212 131.741
L327.719 131.56
L328.973 132.781
L331.48 133.436
L332.732 133.682
L333.987 134.198
L335.242 134.199
L336.496 136.806
L337.749 137.308
L340.256 136.641
L341.51 136.844
L344.017 136.932
L345.27 138.027
L346.524 138.417
L347.777 138.275
L350.284 138.804
L351.537 139.072
L352.793 142.003
L354.046 141.82
L355.3 141.419
L356.553 141.139
L357.807 141.143
L359.06 142.199
L360.314 141.986
L361.569 142.701
L362.822 143.1
L365.329 143.052
L367.835 144.084
L369.088 145.24
L370.343 145.156
L371.597 145.395
L372.85 146.604
L374.104 148.385
L375.357 148.687
L376.611 149.309
L377.864 149.594
L379.118 150.397
L380.371 150.445
L381.625 151.398
L382.878 151.244
L384.132 151.822
L385.385 151.703
L386.639 151.756
L387.894 152.625
L389.148 153.059
L390.399 152.974
L391.653 152.287
L392.906 152.673
L394.16 151.944
L396.669 153.736
L399.174 154.461
L400.427 154.217
L401.681 154.154
L402.936 155.353
L404.188 154.463
L405.441 155.34
L406.696 156.041
L407.95 155.824
L409.203 155.814
L410.457 156.378
L411.71 155.867
L412.964 156.442
L414.219 157.788
L415.474 157.275
L416.728 157.862
L417.983 158.088
L419.237 158.704
L420.49 158.469
L421.744 159.041
L422.995 159.23
L425.501 159.981
L426.756 160.656
L428.009 161.074
L429.263 161.872
L430.515 161.82
L431.768 162.622
L433.023 163.564
L436.782 164.815
L438.036 165.882
L439.289 165.066
L440.544 165.517
L441.798 165.194
L443.051 165.878
L444.305 165.413
L445.558 166.414
L446.812 166.615
L448.065 167.287
L449.319 165.756
L451.826 165.14
L453.079 166.039
L454.333 166.136
L455.586 166.739
L456.84 166.213
L458.093 166.996
L459.348 166.912
L460.602 167.771
L461.855 167.133
L464.362 167.697
L465.616 166.475
L466.868 167.257
L468.123 166.57
L469.376 167.706
L471.883 168.423
L473.137 168.975
L474.39 169.027
L475.646 168.649
L476.899 169.275
L480.661 170.612
L481.913 171.365
L483.167 171.856
L484.422 171.608
L485.675 171.673
L486.927 172.56
L488.181 172.49
L489.432 172.083
L490.684 172.745
L493.191 173.15
L494.446 172.267
L496.953 172.423
L498.207 172.787
L499.46 174.336
L500.714 173.953
L501.967 174.784
L503.219 174.044
L504.474 173.913
L505.728 174.677
L506.981 175.298
L508.235 175.191
L509.488 176.351
L509.488 176.351" style="fill:none;stroke:#0000ff;"/>
   </g>
   <g id="line2d_2">
    <path clip-path="url(#p495b02252e)" d="
M72 301.23
L73.2553 297.972
L75.7587 292.657
L77.0122 290.572
L78.2657 288.212
L80.7709 284.049
M87.0365 274.288
L88.29 271.486
L89.5435 267.785
M92.0505 263.687
L93.304 260.686
L94.5593 259.151
L97.0716 255.295
L99.5786 251.859
L100.834 250.951
L102.087 249.191
M104.596 246.116
L105.85 243.685
L108.357 239.464
L109.61 238.453
L112.117 234.865
L113.371 233.988
L114.624 232.675
L115.878 231.554
L118.385 229.918
L120.892 227.233
L122.147 226.205
L124.654 223.177
L125.905 221.742
L127.157 220.858
L128.412 220.203
L129.666 218.079
L130.919 216.408
L132.173 215.232
L133.428 214.268
L134.685 212.141
L135.939 210.475
L137.192 209.199
M139.699 207.736
L140.953 207.846
L142.206 207.441
L143.458 203.868
L144.713 204.486
L145.965 203.346
L147.218 203.638
M149.725 200.742
L150.979 200.091
L152.232 198.65
L153.486 198.866
L157.246 194.601
L158.502 194.613
L159.755 193.235
L163.516 190.734
L164.767 190.111
L166.021 188.308
L167.276 187.326
L168.53 188.634
L169.783 189.545
M172.29 187.334
L173.54 186.985
L174.793 184.955
L178.554 182.447
L179.807 182.207
L181.061 180.681
L182.316 179.936
L183.568 179.015
L184.823 179.428
L186.077 178.818
L187.33 177.447
L188.584 177.289
L189.837 178.207
L191.091 175.198
L192.344 177.424
L193.599 177.484
L194.853 176.452
L196.106 177.899
L198.613 178.367
L199.865 178.837
L201.119 177.264
L202.374 180.243
L203.627 179.023
L204.881 182.252
L206.134 182.419
L207.388 183.383
L209.893 187.484
L211.148 187.7
L214.909 189.81
L216.162 190.151
L217.416 190.102
L218.669 189.832
L219.924 188.796
L221.178 188.947
L222.431 186.585
L223.685 185.843
L224.938 188.306
L226.192 182.271
L227.445 187.981
L232.461 185.269
L236.22 184.837
L237.473 184.192
L238.727 187.545
L239.979 187.742
L241.232 188.316
L242.486 189.422
L243.737 189.123
L246.244 189.218
L247.496 188.941
L248.751 189.421
L250.005 189.503
L251.258 190.538
L252.51 191.307
L253.763 191.4
L255.019 191.745
L256.274 194.206
L257.527 194.837
L258.781 194.865
L260.033 195.433
L261.286 196.13
L262.54 196.003
L263.795 194.003
L265.048 194.95
L266.302 195.048
L267.555 195.61
L268.809 194.541
L270.062 195.934
L271.316 196.271
L273.825 195.993
L275.078 197.269
L276.332 198.006
L277.585 198.41
L278.839 198.59
L280.09 199.137
L281.344 199.93
L282.599 199.634
L283.853 199.904
L285.106 200.6
L286.359 200.711
L287.613 201.297
L288.866 197.254
L290.12 197.478
L291.375 202.692
L292.629 202.816
L293.882 202.804
L295.136 203.369
L296.391 202.575
L297.643 202.495
L298.896 203.251
M302.653 204.127
L306.408 204.223
L307.663 204.844
L308.917 204.521
L310.17 205.062
L311.424 205.287
L312.677 204.981
L313.931 207.039
L315.183 207.146
L316.438 207.069
L317.691 207.394
L318.945 207.032
L320.198 203.449
L321.452 208.854
L322.705 208.256
L323.959 207.969
L325.212 207.889
L326.466 208.083
L327.719 208.074
L328.973 208.708
L330.226 209.066
L331.48 209.065
L332.732 208.808
L333.987 209.412
L335.242 209.195
L336.496 210.133
L337.749 210.095
L339.003 210.201
L340.256 209.772
L344.017 209.533
L345.27 210.672
L346.524 210.343
L347.777 210.597
L349.03 210.366
L350.284 209.903
L351.537 210.147
L352.793 211.85
L354.046 211.707
L355.3 211.434
L356.553 211.302
L357.807 211.33
L359.06 211.71
L360.314 211.706
L361.569 212.02
L362.822 212.089
L364.076 212.347
L365.329 212.429
L366.583 212.737
L367.835 213.521
L370.343 214.618
L371.597 214.336
L372.85 215.056
L374.104 216.256
L376.611 217.161
L377.864 217.149
L379.118 217.645
L380.371 217.39
L381.625 218.01
L382.878 217.623
L384.132 217.945
L385.385 217.876
L387.894 218.495
L389.148 218.565
L390.399 219.119
L391.653 218.646
L392.906 218.764
L394.16 218.754
L395.415 219.107
L396.669 219.924
L397.92 220.114
L399.174 220.081
L401.681 219.657
L402.936 220.188
L404.188 219.937
L406.696 220.781
L409.203 220.96
L410.457 221.131
L411.71 220.769
L412.964 220.997
L414.219 221.89
L415.474 221.341
L416.728 222.151
L417.983 222.241
L421.744 222.249
L422.995 222.89
L424.249 222.991
L426.756 223.462
L429.263 224.18
L430.515 224.126
L431.768 224.55
L434.277 225.057
L435.529 225.199
L438.036 226.008
L439.289 225.758
L440.544 226.215
L441.798 225.699
L443.051 226.073
L444.305 225.721
L445.558 226.375
L446.812 227.333
L448.065 227.947
L449.319 226.4
L451.826 225.499
L453.079 225.724
L454.333 225.836
L455.586 226.07
L456.84 225.989
L458.093 226.414
L459.348 226.618
L460.602 227.098
L461.855 226.882
L464.362 227.243
L465.616 226.73
L466.868 227.129
L468.123 226.74
L469.376 227.378
L470.63 227.471
L471.883 228.195
L473.137 228.571
L474.39 228.544
L475.646 227.876
L476.899 228.172
L478.154 228.593
L480.661 228.977
L481.913 229.611
L483.167 229.436
L484.422 230.156
L485.675 230.045
L488.181 230.065
L489.432 229.829
L490.684 230.342
L491.937 230.384
L493.191 230.882
L494.446 230.324
L496.953 230.604
L498.207 230.925
L499.46 231.809
L501.967 231.525
L504.474 231.735
L506.981 232.484
L508.235 232.225
L509.488 233.164
L509.488 233.164" style="fill:none;stroke:#ff0000;"/>
   </g>
   <g id="line2d_3">
    <path clip-path="url(#p495b02252e)" d="
M72 318.804
L73.2553 318.091
L74.507 317.425
L75.7587 317.105
L77.0122 317.545
L78.2657 317.665
L79.5174 317.04
L80.7709 317.033
M87.0365 317.886
L88.29 318.509
L89.5435 317.978
M92.0505 317.727
L93.304 316.607
L94.5593 317.068
L97.0716 318.419
L98.3251 318.93
L99.5786 318.866
L100.834 321.15
L102.087 320.71
M104.596 321.676
L105.85 320.796
L108.357 317.75
L109.61 316.752
L110.864 315.923
L112.117 314.638
L113.371 314.439
L114.624 313.881
L115.878 313.926
L117.131 313.779
L118.385 313.51
L119.638 312.905
L120.892 312.063
L123.398 310.609
L124.654 310.801
L125.905 309.389
L127.157 310.304
L128.412 309.074
L129.666 308.878
L130.919 308.002
L132.173 306.526
L133.428 305.331
L134.685 303.94
L135.939 303.059
L137.192 303.295
M139.699 303.309
L140.953 303.985
L142.206 303.376
L143.458 305.795
L144.713 301.213
L145.965 300.466
L147.218 300.183
M149.725 297.728
L150.979 297.381
L152.232 297.039
L153.486 296.338
L154.739 296.202
L155.993 295.637
L157.246 294.684
L159.755 294.19
L161.009 293.891
L162.262 293.415
L163.516 292.633
L164.767 292.208
L166.021 292.105
L167.276 292.567
L168.53 293.386
L169.783 294.63
M172.29 293.192
L173.54 290.312
L174.793 289.205
L176.047 287.478
L177.3 287.452
L178.554 287.593
L179.807 285.828
L181.061 283.713
L182.316 282.526
L183.568 282.712
L184.823 281.41
L187.33 280.452
L188.584 280.627
L189.837 278.293
L191.091 281.608
L192.344 277.523
L193.599 279.263
L194.853 277.402
L196.106 277.391
L197.36 278.127
L199.865 277.337
L201.119 281.817
L202.374 276.101
L203.627 276.221
L204.881 278.21
L206.134 278.196
L207.388 279.007
L208.641 277.932
L209.893 278.626
L211.148 278.596
L212.402 278.736
L213.655 279.744
L214.909 278.899
L216.162 278.697
L217.416 277.347
L218.669 278.232
L219.924 278.106
L221.178 279.325
L223.685 286.871
L224.938 282.066
L226.192 295.128
L227.445 283.924
L228.699 284.52
L229.952 284.721
L231.208 282.786
L232.461 282.313
L233.715 281.497
L234.968 279.84
L236.22 279.703
L237.473 279.698
L238.727 281.375
L239.979 282.816
L241.232 282.425
L242.486 283.453
L243.737 282.762
L244.991 283.011
L246.244 282.683
L247.496 282.572
L248.751 283.025
L250.005 282.935
L251.258 282.37
L252.51 282.135
L253.763 281.609
L255.019 287.315
L256.274 281.456
L257.527 282.21
L261.286 282.849
L262.54 283.742
L263.795 285.309
L265.048 282.012
L266.302 281.298
L267.555 281.995
L268.809 283.682
L270.062 281.38
L271.316 281.591
L273.825 280.98
L275.078 281.814
L276.332 283.179
L277.585 283.334
L278.839 282.946
L280.09 283.191
L281.344 282.876
L282.599 282.052
L283.853 281.579
L285.106 282.239
L286.359 281.864
L287.613 282.559
L288.866 291.474
L290.12 293.908
L291.375 282.177
L292.629 282.546
L293.882 283.033
L295.136 283.019
L296.391 282.487
L297.643 281.07
L298.896 281.481
M302.653 282.236
L303.905 282.786
L305.157 282.467
L306.408 282.451
L307.663 282.902
L308.917 282.716
L310.17 283.525
L311.424 283.537
L312.677 285.509
L313.931 283.822
L315.183 283.988
L316.438 283.72
L318.945 283.712
L320.198 292.873
L321.452 284.012
L323.959 284.425
L325.212 284.037
L326.466 284.507
L328.973 284.635
L330.226 284.989
L331.48 284.694
L332.732 283.933
L333.987 284.625
L335.242 284.192
L336.496 283.46
L337.749 282.881
L339.003 283.379
L340.256 282.903
L341.51 282.605
L342.765 282.736
L344.017 282.135
L345.27 283.316
L346.524 282.269
L347.777 282.919
L349.03 282.15
L350.284 281.003
L351.537 281.223
L352.793 281.696
L356.553 281.466
L357.807 281.518
L359.06 281.221
L360.314 281.427
L361.569 281.339
L362.822 281.079
L364.076 281.59
L366.583 281.919
L367.835 282.959
L369.088 282.989
L370.343 284.08
L371.597 283.277
L372.85 283.509
L375.357 284.814
L376.611 285.014
L377.864 284.703
L379.118 284.893
L380.371 284.335
L381.625 284.622
L382.878 284.003
L385.385 284.049
L386.639 284.584
L389.148 284.072
L390.399 285.264
L392.906 284.856
L394.16 285.564
L395.415 285.373
L396.669 286.111
L397.92 286.107
L399.174 285.701
L402.936 285.022
L404.188 285.412
L405.441 285.301
L406.696 285.521
L409.203 286.106
L411.71 285.67
L412.964 285.552
L414.219 285.993
L415.474 285.406
L416.728 286.44
L417.983 286.393
L419.237 285.734
L420.49 285.882
L421.744 285.456
L422.995 286.551
L424.249 286.348
L425.501 286.454
L426.756 286.268
L428.009 286.515
L431.768 286.477
L433.023 286.083
L434.277 286.156
L435.529 286.042
L436.782 286.434
L438.036 286.134
L439.289 286.451
L440.544 286.913
L441.798 286.205
L443.051 286.267
L444.305 286.029
L445.558 286.335
L446.812 288.051
L448.065 288.607
L449.319 287.044
L450.57 286.556
L451.826 285.859
L453.079 285.41
L454.333 285.535
L455.586 285.401
L456.84 285.764
L458.093 285.832
L459.348 286.324
L461.855 286.631
L463.109 286.796
L464.362 286.789
L465.616 286.986
L469.376 287.049
L470.63 286.905
L471.883 287.967
L473.137 288.168
L474.39 288.061
L475.646 287.103
L476.899 287.07
L478.154 287.456
L479.408 287.307
L480.661 287.342
L481.913 287.858
L483.167 287.016
L484.422 288.703
L485.675 288.417
L486.927 287.569
L488.181 287.64
L489.432 287.575
L490.684 287.938
L491.937 287.771
L493.191 288.613
L494.446 288.38
L500.714 289.352
L501.967 288.267
L503.219 289.247
L504.474 289.557
L505.728 289.438
L506.981 289.669
L508.235 289.26
L509.488 289.976
L509.488 289.976" style="fill:none;stroke:#0000ff;"/>
   </g>
   <g id="line2d_4">
    <path clip-path="url(#p495b02252e)" d="
M72 308.599
L73.2553 306.245
L74.507 305.836
L75.7587 302.766
L77.0122 302.869
L78.2657 301.359
L79.5174 298.442
L80.7709 290.639
L82.0244 287.517
L83.2761 297.7
L84.5296 276.619
L85.783 283.347
L87.0365 286.443
L88.29 285.062
L89.5435 281.454
L90.797 270.428
L92.0505 277.744
L93.304 273.958
L94.5593 270.863
L95.8145 269.43
L97.0716 266.718
L99.5786 265.72
L102.087 266.743
L103.341 258.148
L104.596 264.595
L105.85 262.138
L107.103 257.61
L108.357 256.869
L109.61 256.97
L110.864 254.412
L112.117 250.549
L113.371 253.337
L114.624 257.687
L115.878 259.503
L117.131 260.348
L118.385 259.964
L119.638 258.863
L120.892 256.459
L122.147 258.148
L123.398 257.943
L124.654 251.726
L125.905 247.53
L127.157 249.09
L128.412 247.223
L129.666 242.746
L130.919 240.469
L132.173 240.955
L133.428 240.188
L134.685 235.48
L135.939 229.237
L137.192 230.593
L138.446 229.34
L139.699 228.598
L140.953 229.775
L142.206 227.78
L143.458 225.528
L144.713 224.53
L145.965 226.192
L147.218 226.935
L148.472 216.472
L149.725 225.196
L150.979 225.63
L152.232 227.626
L153.486 226.576
L154.739 224.889
L155.993 223.865
L157.246 223.327
L158.502 220.411
L159.755 220.719
L161.009 217.725
L162.262 217.034
L166.021 218.288
L167.276 216.625
L168.53 216.599
L169.783 219.183
L171.037 206.212
L172.29 218.288
L173.54 217.213
L174.793 216.932
L176.047 219.286
L177.3 216.011
L178.554 209.794
L179.807 206.8
L181.061 200.532
L182.316 199.714
L183.568 198.051
L184.823 191.476
L186.077 189.838
L187.33 187.894
L188.584 194.265
L191.091 191.323
L192.344 198.536
L193.599 199.074
L194.853 197.488
L197.36 202.86
L199.865 203.961
L201.119 203.474
L202.374 204.369
L203.627 202.783
L204.881 206.109
L206.134 205.674
L207.388 206.339
L208.641 206.826
L209.893 204.779
L211.148 205.42
L212.402 208.004
L213.655 208.616
L214.909 211.841
L216.162 213.58
L217.416 210.305
L218.669 210.996
L219.924 210.433
L221.178 215.474
L222.431 214.348
L223.685 214.348
L224.938 213.99
L226.192 212.633
L227.445 214.655
L228.699 208.515
L229.952 209.103
L231.208 209.307
L232.461 212.532
L233.715 212.889
L234.968 209
L236.22 210.229
L237.473 213.76
L238.727 216.702
L239.979 214.91
L241.232 218.185
L242.486 217.264
L243.737 216.138
L244.991 216.011
L246.244 214.91
L247.496 213.12
L250.005 215.32
L251.258 215.524
L252.51 214.578
L253.763 215.807
L255.019 214.655
L256.274 215.807
L257.527 216.496
L258.781 212.352
L260.033 215.857
L261.286 214.476
L262.54 215.678
L263.795 217.52
L265.048 217.955
L266.302 218.211
L267.555 219.516
L268.809 219.977
L270.062 222.713
L271.316 221.588
L272.569 221.333
L273.825 220.692
L275.078 222.586
L276.332 225.042
L277.585 224.786
L278.839 226.346
L280.09 224.966
L281.344 222.713
L282.599 223.788
L283.853 222.79
L285.106 223.303
L286.359 222.406
L288.866 224.146
L290.12 225.58
L291.375 227.831
L292.629 228.572
L293.882 229.007
L295.136 228.879
L297.643 229.801
L298.896 230.132
L300.15 215.5
L301.401 216.522
L302.653 229.877
L303.905 232.589
L305.157 231.336
L306.408 233.536
L308.917 233.177
L310.17 233.638
L311.424 232.716
L312.677 233.484
L313.931 233.357
L315.183 232.538
L316.438 234.329
L317.691 233.587
L318.945 235.096
L320.198 233.997
L321.452 234.917
L322.705 234.662
L323.959 235.71
L325.212 235.403
L326.466 235.684
L327.719 236.529
L328.973 234.943
L330.226 235.813
L331.48 233.587
L332.732 236.018
L333.987 236.044
L335.242 236.452
L336.496 236.733
L337.749 236.529
L341.51 237.117
L342.765 236.196
L344.017 233.714
L345.27 237.783
L346.524 236.99
L347.777 238.576
L349.03 239.01
L350.284 238.396
L351.537 238.014
L352.793 238.371
L354.046 234.355
L355.3 236.248
L356.553 234.072
L357.807 234.072
L359.06 234.994
L360.314 231.797
L361.569 232.333
L362.822 231.156
L364.076 231.413
L365.329 231.361
L366.583 232.333
L367.835 234.201
L369.088 235.199
L370.343 232.102
L371.597 234.379
L372.85 233.945
L374.104 235.122
L375.357 235.199
L376.611 234.405
L377.864 237.68
L379.118 235.353
L380.371 236.119
L381.625 235.02
L382.878 235.429
L384.132 237.169
L385.385 237.399
L386.639 237.169
L387.894 236.452
L389.148 239.267
L390.399 239.676
L392.906 233.817
L394.16 233.945
L395.415 239.957
L396.669 239.317
L397.92 240.265
L399.174 240.596
L400.427 241.287
L401.681 242.899
L402.936 241.978
L404.188 240.443
L405.441 239.113
L406.696 240.725
L407.95 240.366
L409.203 240.596
L411.71 241.518
L412.964 240.98
L414.219 241.774
L415.474 240.52
L416.728 242.592
L417.983 242.081
L419.237 241.441
L421.744 242.695
L422.995 244.409
L424.249 244.076
L426.756 245.227
L428.009 244.997
L429.263 243.437
L430.515 245.381
L433.023 245.176
L434.277 245.97
L435.529 244.793
L436.782 245.381
L439.289 245.457
L440.544 245.688
L441.798 244.128
L443.051 244.716
L445.558 246.148
L446.812 246.609
L448.065 247.453
L449.319 247.581
L450.57 247.377
L451.826 247.403
L454.333 247.787
L455.586 247.3
L456.84 249.116
L458.093 249.551
L459.348 249.449
L460.602 249.167
L461.855 249.654
L463.109 248.783
L464.362 248.912
L465.616 250.114
L466.868 249.987
L468.123 248.809
L469.376 249.781
L470.63 249.142
L471.883 249.807
L473.137 250.268
L474.39 249.142
L475.646 250.549
L476.899 249.321
L478.154 250.165
L479.408 250.062
L480.661 251.266
L481.913 250.011
L483.167 251.521
L484.422 248.809
L485.675 251.957
L486.927 252.365
L488.181 250.983
L489.432 250.498
L490.684 250.959
L491.937 251.189
L493.191 252.007
L494.446 250.472
L495.7 252.034
L496.953 252.289
L498.207 253.184
L499.46 253.337
L500.714 251.573
L501.967 253.466
L503.219 252.749
L504.474 253.184
L505.728 253.26
L506.981 254.923
L508.235 254.438
L509.488 253.67
L509.488 253.67" style="fill:none;stroke:#008000;"/>
   </g>
   <g id="matplotlib.axis_1">
    <g id="xtick_1">
     <g id="line2d_5">
      <defs>
       <path d="
M0 0
L0 -4" id="mcb557df647" style="stroke:#000000;stroke-linecap:butt;stroke-width:0.5;"/>
      </defs>
      <g>
       <use style="stroke:#000000;stroke-linecap:butt;stroke-width:0.5;" x="72.0" xlink:href="#mcb557df647" y="385.56"/>
      </g>
     </g>
     <g id="line2d_6">
      <defs>
       <path d="
M0 0
L0 4" id="mdad270ee8e" style="stroke:#000000;stroke-linecap:butt;stroke-width:0.5;"/>
      </defs>
      <g>
       <use style="stroke:#000000;stroke-linecap:butt;stroke-width:0.5;" x="72.0" xlink:href="#mdad270ee8e" y="42.84"/>
      </g>
     </g>
     <g id="text_1">
      <!-- 0 -->
      <defs>
       <path d="
M31.7812 66.4062
Q24.1719 66.4062 20.3281 58.9062
Q16.5 51.4219 16.5 36.375
Q16.5 21.3906 20.3281 13.8906
Q24.1719 6.39062 31.7812 6.39062
Q39.4531 6.39062 43.2812 13.8906
Q47.125 21.3906 47.125 36.375
Q47.125 51.4219 43.2812 58.9062
Q39.4531 66.4062 31.7812 66.4062
M31.7812 74.2188
Q44.0469 74.2188 50.5156 64.5156
Q56.9844 54.8281 56.9844 36.375
Q56.9844 17.9688 50.5156 8.26562
Q44.0469 -1.42188 31.7812 -1.42188
Q19.5312 -1.42188 13.0625 8.26562
Q6.59375 17.9688 6.59375 36.375
Q6.59375 54.8281 13.0625 64.5156
Q19.5312 74.2188 31.7812 74.2188" id="BitstreamVeraSans-Roman-30"/>
      </defs>
      <g transform="translate(68.9765625 398.46625)scale(0.12 -0.12)">
       <use xlink:href="#BitstreamVeraSans-Roman-30"/>
      </g>
     </g>
    </g>
    <g id="xtick_2">
     <g id="line2d_7">
      <g>
       <use style="stroke:#000000;stroke-linecap:butt;stroke-width:0.5;" x="161.28" xlink:href="#mcb557df647" y="385.56"/>
      </g>
     </g>
     <g id="line2d_8">
      <g>
       <use style="stroke:#000000;stroke-linecap:butt;stroke-width:0.5;" x="161.28" xlink:href="#mdad270ee8e" y="42.84"/>
      </g>
     </g>
     <g id="text_2">
      <!-- 50 -->
      <defs>
       <path d="
M10.7969 72.9062
L49.5156 72.9062
L49.5156 64.5938
L19.8281 64.5938
L19.8281 46.7344
Q21.9688 47.4688 24.1094 47.8281
Q26.2656 48.1875 28.4219 48.1875
Q40.625 48.1875 47.75 41.5
Q54.8906 34.8125 54.8906 23.3906
Q54.8906 11.625 47.5625 5.09375
Q40.2344 -1.42188 26.9062 -1.42188
Q22.3125 -1.42188 17.5469 -0.640625
Q12.7969 0.140625 7.71875 1.70312
L7.71875 11.625
Q12.1094 9.23438 16.7969 8.0625
Q21.4844 6.89062 26.7031 6.89062
Q35.1562 6.89062 40.0781 11.3281
Q45.0156 15.7656 45.0156 23.3906
Q45.0156 31 40.0781 35.4375
Q35.1562 39.8906 26.7031 39.8906
Q22.75 39.8906 18.8125 39.0156
Q14.8906 38.1406 10.7969 36.2812
z
" id="BitstreamVeraSans-Roman-35"/>
      </defs>
      <g transform="translate(154.5065625 398.46625)scale(0.12 -0.12)">
       <use xlink:href="#BitstreamVeraSans-Roman-35"/>
       <use x="63.623046875" xlink:href="#BitstreamVeraSans-Roman-30"/>
      </g>
     </g>
    </g>
    <g id="xtick_3">
     <g id="line2d_9">
      <g>
       <use style="stroke:#000000;stroke-linecap:butt;stroke-width:0.5;" x="250.56" xlink:href="#mcb557df647" y="385.56"/>
      </g>
     </g>
     <g id="line2d_10">
      <g>
       <use style="stroke:#000000;stroke-linecap:butt;stroke-width:0.5;" x="250.56" xlink:href="#mdad270ee8e" y="42.84"/>
      </g>
     </g>
     <g id="text_3">
      <!-- 100 -->
      <defs>
       <path d="
M12.4062 8.29688
L28.5156 8.29688
L28.5156 63.9219
L10.9844 60.4062
L10.9844 69.3906
L28.4219 72.9062
L38.2812 72.9062
L38.2812 8.29688
L54.3906 8.29688
L54.3906 0
L12.4062 0
z
" id="BitstreamVeraSans-Roman-31"/>
      </defs>
      <g transform="translate(240.165 398.46625)scale(0.12 -0.12)">
       <use xlink:href="#BitstreamVeraSans-Roman-31"/>
       <use x="63.623046875" xlink:href="#BitstreamVeraSans-Roman-30"/>
       <use x="127.24609375" xlink:href="#BitstreamVeraSans-Roman-30"/>
      </g>
     </g>
    </g>
    <g id="xtick_4">
     <g id="line2d_11">
      <g>
       <use style="stroke:#000000;stroke-linecap:butt;stroke-width:0.5;" x="339.84" xlink:href="#mcb557df647" y="385.56"/>
      </g>
     </g>
     <g id="line2d_12">
      <g>
       <use style="stroke:#000000;stroke-linecap:butt;stroke-width:0.5;" x="339.84" xlink:href="#mdad270ee8e" y="42.84"/>
      </g>
     </g>
     <g id="text_4">
      <!-- 150 -->
      <g transform="translate(329.445 398.46625)scale(0.12 -0.12)">
       <use xlink:href="#BitstreamVeraSans-Roman-31"/>
       <use x="63.623046875" xlink:href="#BitstreamVeraSans-Roman-35"/>
       <use x="127.24609375" xlink:href="#BitstreamVeraSans-Roman-30"/>
      </g>
     </g>
    </g>
    <g id="xtick_5">
     <g id="line2d_13">
      <g>
       <use style="stroke:#000000;stroke-linecap:butt;stroke-width:0.5;" x="429.12" xlink:href="#mcb557df647" y="385.56"/>
      </g>
     </g>
     <g id="line2d_14">
      <g>
       <use style="stroke:#000000;stroke-linecap:butt;stroke-width:0.5;" x="429.12" xlink:href="#mdad270ee8e" y="42.84"/>
      </g>
     </g>
     <g id="text_5">
      <!-- 200 -->
      <defs>
       <path d="
M19.1875 8.29688
L53.6094 8.29688
L53.6094 0
L7.32812 0
L7.32812 8.29688
Q12.9375 14.1094 22.625 23.8906
Q32.3281 33.6875 34.8125 36.5312
Q39.5469 41.8438 41.4219 45.5312
Q43.3125 49.2188 43.3125 52.7812
Q43.3125 58.5938 39.2344 62.25
Q35.1562 65.9219 28.6094 65.9219
Q23.9688 65.9219 18.8125 64.3125
Q13.6719 62.7031 7.8125 59.4219
L7.8125 69.3906
Q13.7656 71.7812 18.9375 73
Q24.125 74.2188 28.4219 74.2188
Q39.75 74.2188 46.4844 68.5469
Q53.2188 62.8906 53.2188 53.4219
Q53.2188 48.9219 51.5312 44.8906
Q49.8594 40.875 45.4062 35.4062
Q44.1875 33.9844 37.6406 27.2188
Q31.1094 20.4531 19.1875 8.29688" id="BitstreamVeraSans-Roman-32"/>
      </defs>
      <g transform="translate(418.505625 398.46625)scale(0.12 -0.12)">
       <use xlink:href="#BitstreamVeraSans-Roman-32"/>
       <use x="63.623046875" xlink:href="#BitstreamVeraSans-Roman-30"/>
       <use x="127.24609375" xlink:href="#BitstreamVeraSans-Roman-30"/>
      </g>
     </g>
    </g>
    <g id="xtick_6">
     <g id="line2d_15">
      <g>
       <use style="stroke:#000000;stroke-linecap:butt;stroke-width:0.5;" x="518.4" xlink:href="#mcb557df647" y="385.56"/>
      </g>
     </g>
     <g id="line2d_16">
      <g>
       <use style="stroke:#000000;stroke-linecap:butt;stroke-width:0.5;" x="518.4" xlink:href="#mdad270ee8e" y="42.84"/>
      </g>
     </g>
     <g id="text_6">
      <!-- 250 -->
      <g transform="translate(507.785625 398.46625)scale(0.12 -0.12)">
       <use xlink:href="#BitstreamVeraSans-Roman-32"/>
       <use x="63.623046875" xlink:href="#BitstreamVeraSans-Roman-35"/>
       <use x="127.24609375" xlink:href="#BitstreamVeraSans-Roman-30"/>
      </g>
     </g>
    </g>
    <g id="text_7">
     <!-- Time in seconds -->
     <defs>
      <path id="BitstreamVeraSans-Roman-20"/>
      <path d="
M54.8906 33.0156
L54.8906 0
L45.9062 0
L45.9062 32.7188
Q45.9062 40.4844 42.875 44.3281
Q39.8438 48.1875 33.7969 48.1875
Q26.5156 48.1875 22.3125 43.5469
Q18.1094 38.9219 18.1094 30.9062
L18.1094 0
L9.07812 0
L9.07812 54.6875
L18.1094 54.6875
L18.1094 46.1875
Q21.3438 51.125 25.7031 53.5625
Q30.0781 56 35.7969 56
Q45.2188 56 50.0469 50.1719
Q54.8906 44.3438 54.8906 33.0156" id="BitstreamVeraSans-Roman-6e"/>
      <path d="
M52 44.1875
Q55.375 50.25 60.0625 53.125
Q64.75 56 71.0938 56
Q79.6406 56 84.2812 50.0156
Q88.9219 44.0469 88.9219 33.0156
L88.9219 0
L79.8906 0
L79.8906 32.7188
Q79.8906 40.5781 77.0938 44.375
Q74.3125 48.1875 68.6094 48.1875
Q61.625 48.1875 57.5625 43.5469
Q53.5156 38.9219 53.5156 30.9062
L53.5156 0
L44.4844 0
L44.4844 32.7188
Q44.4844 40.625 41.7031 44.4062
Q38.9219 48.1875 33.1094 48.1875
Q26.2188 48.1875 22.1562 43.5312
Q18.1094 38.875 18.1094 30.9062
L18.1094 0
L9.07812 0
L9.07812 54.6875
L18.1094 54.6875
L18.1094 46.1875
Q21.1875 51.2188 25.4844 53.6094
Q29.7812 56 35.6875 56
Q41.6562 56 45.8281 52.9688
Q50 49.9531 52 44.1875" id="BitstreamVeraSans-Roman-6d"/>
      <path d="
M30.6094 48.3906
Q23.3906 48.3906 19.1875 42.75
Q14.9844 37.1094 14.9844 27.2969
Q14.9844 17.4844 19.1562 11.8438
Q23.3438 6.20312 30.6094 6.20312
Q37.7969 6.20312 41.9844 11.8594
Q46.1875 17.5312 46.1875 27.2969
Q46.1875 37.0156 41.9844 42.7031
Q37.7969 48.3906 30.6094 48.3906
M30.6094 56
Q42.3281 56 49.0156 48.375
Q55.7188 40.7656 55.7188 27.2969
Q55.7188 13.875 49.0156 6.21875
Q42.3281 -1.42188 30.6094 -1.42188
Q18.8438 -1.42188 12.1719 6.21875
Q5.51562 13.875 5.51562 27.2969
Q5.51562 40.7656 12.1719 48.375
Q18.8438 56 30.6094 56" id="BitstreamVeraSans-Roman-6f"/>
      <path d="
M9.42188 54.6875
L18.4062 54.6875
L18.4062 0
L9.42188 0
z

M9.42188 75.9844
L18.4062 75.9844
L18.4062 64.5938
L9.42188 64.5938
z
" id="BitstreamVeraSans-Roman-69"/>
      <path d="
M45.4062 46.3906
L45.4062 75.9844
L54.3906 75.9844
L54.3906 0
L45.4062 0
L45.4062 8.20312
Q42.5781 3.32812 38.25 0.953125
Q33.9375 -1.42188 27.875 -1.42188
Q17.9688 -1.42188 11.7344 6.48438
Q5.51562 14.4062 5.51562 27.2969
Q5.51562 40.1875 11.7344 48.0938
Q17.9688 56 27.875 56
Q33.9375 56 38.25 53.625
Q42.5781 51.2656 45.4062 46.3906
M14.7969 27.2969
Q14.7969 17.3906 18.875 11.75
Q22.9531 6.10938 30.0781 6.10938
Q37.2031 6.10938 41.2969 11.75
Q45.4062 17.3906 45.4062 27.2969
Q45.4062 37.2031 41.2969 42.8438
Q37.2031 48.4844 30.0781 48.4844
Q22.9531 48.4844 18.875 42.8438
Q14.7969 37.2031 14.7969 27.2969" id="BitstreamVeraSans-Roman-64"/>
      <path d="
M56.2031 29.5938
L56.2031 25.2031
L14.8906 25.2031
Q15.4844 15.9219 20.4844 11.0625
Q25.4844 6.20312 34.4219 6.20312
Q39.5938 6.20312 44.4531 7.46875
Q49.3125 8.73438 54.1094 11.2812
L54.1094 2.78125
Q49.2656 0.734375 44.1875 -0.34375
Q39.1094 -1.42188 33.8906 -1.42188
Q20.7969 -1.42188 13.1562 6.1875
Q5.51562 13.8125 5.51562 26.8125
Q5.51562 40.2344 12.7656 48.1094
Q20.0156 56 32.3281 56
Q43.3594 56 49.7812 48.8906
Q56.2031 41.7969 56.2031 29.5938
M47.2188 32.2344
Q47.125 39.5938 43.0938 43.9844
Q39.0625 48.3906 32.4219 48.3906
Q24.9062 48.3906 20.3906 44.1406
Q15.875 39.8906 15.1875 32.1719
z
" id="BitstreamVeraSans-Roman-65"/>
      <path d="
M-0.296875 72.9062
L61.375 72.9062
L61.375 64.5938
L35.5 64.5938
L35.5 0
L25.5938 0
L25.5938 64.5938
L-0.296875 64.5938
z
" id="BitstreamVeraSans-Roman-54"/>
      <path d="
M44.2812 53.0781
L44.2812 44.5781
Q40.4844 46.5312 36.375 47.5
Q32.2812 48.4844 27.875 48.4844
Q21.1875 48.4844 17.8438 46.4375
Q14.5 44.3906 14.5 40.2812
Q14.5 37.1562 16.8906 35.375
Q19.2812 33.5938 26.5156 31.9844
L29.5938 31.2969
Q39.1562 29.25 43.1875 25.5156
Q47.2188 21.7812 47.2188 15.0938
Q47.2188 7.46875 41.1875 3.01562
Q35.1562 -1.42188 24.6094 -1.42188
Q20.2188 -1.42188 15.4531 -0.5625
Q10.6875 0.296875 5.42188 2
L5.42188 11.2812
Q10.4062 8.6875 15.2344 7.39062
Q20.0625 6.10938 24.8125 6.10938
Q31.1562 6.10938 34.5625 8.28125
Q37.9844 10.4531 37.9844 14.4062
Q37.9844 18.0625 35.5156 20.0156
Q33.0625 21.9688 24.7031 23.7812
L21.5781 24.5156
Q13.2344 26.2656 9.51562 29.9062
Q5.8125 33.5469 5.8125 39.8906
Q5.8125 47.6094 11.2812 51.7969
Q16.75 56 26.8125 56
Q31.7812 56 36.1719 55.2656
Q40.5781 54.5469 44.2812 53.0781" id="BitstreamVeraSans-Roman-73"/>
      <path d="
M48.7812 52.5938
L48.7812 44.1875
Q44.9688 46.2969 41.1406 47.3438
Q37.3125 48.3906 33.4062 48.3906
Q24.6562 48.3906 19.8125 42.8438
Q14.9844 37.3125 14.9844 27.2969
Q14.9844 17.2812 19.8125 11.7344
Q24.6562 6.20312 33.4062 6.20312
Q37.3125 6.20312 41.1406 7.25
Q44.9688 8.29688 48.7812 10.4062
L48.7812 2.09375
Q45.0156 0.34375 40.9844 -0.53125
Q36.9688 -1.42188 32.4219 -1.42188
Q20.0625 -1.42188 12.7812 6.34375
Q5.51562 14.1094 5.51562 27.2969
Q5.51562 40.6719 12.8594 48.3281
Q20.2188 56 33.0156 56
Q37.1562 56 41.1094 55.1406
Q45.0625 54.2969 48.7812 52.5938" id="BitstreamVeraSans-Roman-63"/>
     </defs>
     <g transform="translate(246.98625 412.755)scale(0.12 -0.12)">
      <use xlink:href="#BitstreamVeraSans-Roman-54"/>
      <use x="57.958984375" xlink:href="#BitstreamVeraSans-Roman-69"/>
      <use x="85.7421875" xlink:href="#BitstreamVeraSans-Roman-6d"/>
      <use x="183.154296875" xlink:href="#BitstreamVeraSans-Roman-65"/>
      <use x="244.677734375" xlink:href="#BitstreamVeraSans-Roman-20"/>
      <use x="276.46484375" xlink:href="#BitstreamVeraSans-Roman-69"/>
      <use x="304.248046875" xlink:href="#BitstreamVeraSans-Roman-6e"/>
      <use x="367.626953125" xlink:href="#BitstreamVeraSans-Roman-20"/>
      <use x="399.4140625" xlink:href="#BitstreamVeraSans-Roman-73"/>
      <use x="451.513671875" xlink:href="#BitstreamVeraSans-Roman-65"/>
      <use x="513.037109375" xlink:href="#BitstreamVeraSans-Roman-63"/>
      <use x="568.017578125" xlink:href="#BitstreamVeraSans-Roman-6f"/>
      <use x="629.19921875" xlink:href="#BitstreamVeraSans-Roman-6e"/>
      <use x="692.578125" xlink:href="#BitstreamVeraSans-Roman-64"/>
      <use x="756.0546875" xlink:href="#BitstreamVeraSans-Roman-73"/>
     </g>
    </g>
   </g>
   <g id="matplotlib.axis_2">
    <g id="ytick_1">
     <g id="line2d_17">
      <defs>
       <path d="
M0 0
L4 0" id="mc8fcea1516" style="stroke:#000000;stroke-linecap:butt;stroke-width:0.5;"/>
      </defs>
      <g>
       <use style="stroke:#000000;stroke-linecap:butt;stroke-width:0.5;" x="72.0" xlink:href="#mc8fcea1516" y="385.56"/>
      </g>
     </g>
     <g id="line2d_18">
      <defs>
       <path d="
M0 0
L-4 0" id="m0d5b0a6425" style="stroke:#000000;stroke-linecap:butt;stroke-width:0.5;"/>
      </defs>
      <g>
       <use style="stroke:#000000;stroke-linecap:butt;stroke-width:0.5;" x="518.4" xlink:href="#m0d5b0a6425" y="385.56"/>
      </g>
     </g>
     <g id="text_8">
      <!-- −500 -->
      <defs>
       <path d="
M10.5938 35.5
L73.1875 35.5
L73.1875 27.2031
L10.5938 27.2031
z
" id="BitstreamVeraSans-Roman-2212"/>
      </defs>
      <g transform="translate(37.1075 389.9278125)scale(0.12 -0.12)">
       <use xlink:href="#BitstreamVeraSans-Roman-2212"/>
       <use x="83.7890625" xlink:href="#BitstreamVeraSans-Roman-35"/>
       <use x="147.412109375" xlink:href="#BitstreamVeraSans-Roman-30"/>
       <use x="211.03515625" xlink:href="#BitstreamVeraSans-Roman-30"/>
      </g>
     </g>
    </g>
    <g id="ytick_2">
     <g id="line2d_19">
      <g>
       <use style="stroke:#000000;stroke-linecap:butt;stroke-width:0.5;" x="72.0" xlink:href="#mc8fcea1516" y="317.016"/>
      </g>
     </g>
     <g id="line2d_20">
      <g>
       <use style="stroke:#000000;stroke-linecap:butt;stroke-width:0.5;" x="518.4" xlink:href="#m0d5b0a6425" y="317.016"/>
      </g>
     </g>
     <g id="text_9">
      <!-- 0 -->
      <g transform="translate(61.953125 321.3838125)scale(0.12 -0.12)">
       <use xlink:href="#BitstreamVeraSans-Roman-30"/>
      </g>
     </g>
    </g>
    <g id="ytick_3">
     <g id="line2d_21">
      <g>
       <use style="stroke:#000000;stroke-linecap:butt;stroke-width:0.5;" x="72.0" xlink:href="#mc8fcea1516" y="248.472"/>
      </g>
     </g>
     <g id="line2d_22">
      <g>
       <use style="stroke:#000000;stroke-linecap:butt;stroke-width:0.5;" x="518.4" xlink:href="#m0d5b0a6425" y="248.472"/>
      </g>
     </g>
     <g id="text_10">
      <!-- 500 -->
      <g transform="translate(46.818125 252.8398125)scale(0.12 -0.12)">
       <use xlink:href="#BitstreamVeraSans-Roman-35"/>
       <use x="63.623046875" xlink:href="#BitstreamVeraSans-Roman-30"/>
       <use x="127.24609375" xlink:href="#BitstreamVeraSans-Roman-30"/>
      </g>
     </g>
    </g>
    <g id="ytick_4">
     <g id="line2d_23">
      <g>
       <use style="stroke:#000000;stroke-linecap:butt;stroke-width:0.5;" x="72.0" xlink:href="#mc8fcea1516" y="179.928"/>
      </g>
     </g>
     <g id="line2d_24">
      <g>
       <use style="stroke:#000000;stroke-linecap:butt;stroke-width:0.5;" x="518.4" xlink:href="#m0d5b0a6425" y="179.928"/>
      </g>
     </g>
     <g id="text_11">
      <!-- 1000 -->
      <g transform="translate(39.575 184.2958125)scale(0.12 -0.12)">
       <use xlink:href="#BitstreamVeraSans-Roman-31"/>
       <use x="63.623046875" xlink:href="#BitstreamVeraSans-Roman-30"/>
       <use x="127.24609375" xlink:href="#BitstreamVeraSans-Roman-30"/>
       <use x="190.869140625" xlink:href="#BitstreamVeraSans-Roman-30"/>
      </g>
     </g>
    </g>
    <g id="ytick_5">
     <g id="line2d_25">
      <g>
       <use style="stroke:#000000;stroke-linecap:butt;stroke-width:0.5;" x="72.0" xlink:href="#mc8fcea1516" y="111.384"/>
      </g>
     </g>
     <g id="line2d_26">
      <g>
       <use style="stroke:#000000;stroke-linecap:butt;stroke-width:0.5;" x="518.4" xlink:href="#m0d5b0a6425" y="111.384"/>
      </g>
     </g>
     <g id="text_12">
      <!-- 1500 -->
      <g transform="translate(39.575 115.7518125)scale(0.12 -0.12)">
       <use xlink:href="#BitstreamVeraSans-Roman-31"/>
       <use x="63.623046875" xlink:href="#BitstreamVeraSans-Roman-35"/>
       <use x="127.24609375" xlink:href="#BitstreamVeraSans-Roman-30"/>
       <use x="190.869140625" xlink:href="#BitstreamVeraSans-Roman-30"/>
      </g>
     </g>
    </g>
    <g id="ytick_6">
     <g id="line2d_27">
      <g>
       <use style="stroke:#000000;stroke-linecap:butt;stroke-width:0.5;" x="72.0" xlink:href="#mc8fcea1516" y="42.84"/>
      </g>
     </g>
     <g id="line2d_28">
      <g>
       <use style="stroke:#000000;stroke-linecap:butt;stroke-width:0.5;" x="518.4" xlink:href="#m0d5b0a6425" y="42.84"/>
      </g>
     </g>
     <g id="text_13">
      <!-- 2000 -->
      <g transform="translate(39.13625 47.2078125)scale(0.12 -0.12)">
       <use xlink:href="#BitstreamVeraSans-Roman-32"/>
       <use x="63.623046875" xlink:href="#BitstreamVeraSans-Roman-30"/>
       <use x="127.24609375" xlink:href="#BitstreamVeraSans-Roman-30"/>
       <use x="190.869140625" xlink:href="#BitstreamVeraSans-Roman-30"/>
      </g>
     </g>
    </g>
    <g id="text_14">
     <!-- Intensity -->
     <defs>
      <path d="
M18.3125 70.2188
L18.3125 54.6875
L36.8125 54.6875
L36.8125 47.7031
L18.3125 47.7031
L18.3125 18.0156
Q18.3125 11.3281 20.1406 9.42188
Q21.9688 7.51562 27.5938 7.51562
L36.8125 7.51562
L36.8125 0
L27.5938 0
Q17.1875 0 13.2344 3.875
Q9.28125 7.76562 9.28125 18.0156
L9.28125 47.7031
L2.6875 47.7031
L2.6875 54.6875
L9.28125 54.6875
L9.28125 70.2188
z
" id="BitstreamVeraSans-Roman-74"/>
      <path d="
M9.8125 72.9062
L19.6719 72.9062
L19.6719 0
L9.8125 0
z
" id="BitstreamVeraSans-Roman-49"/>
      <path d="
M32.1719 -5.07812
Q28.375 -14.8438 24.75 -17.8125
Q21.1406 -20.7969 15.0938 -20.7969
L7.90625 -20.7969
L7.90625 -13.2812
L13.1875 -13.2812
Q16.8906 -13.2812 18.9375 -11.5156
Q21 -9.76562 23.4844 -3.21875
L25.0938 0.875
L2.98438 54.6875
L12.5 54.6875
L29.5938 11.9219
L46.6875 54.6875
L56.2031 54.6875
z
" id="BitstreamVeraSans-Roman-79"/>
     </defs>
     <g transform="translate(32.1075 237.0515625)rotate(-90.0)scale(0.12 -0.12)">
      <use xlink:href="#BitstreamVeraSans-Roman-49"/>
      <use x="29.4921875" xlink:href="#BitstreamVeraSans-Roman-6e"/>
      <use x="92.87109375" xlink:href="#BitstreamVeraSans-Roman-74"/>
      <use x="132.080078125" xlink:href="#BitstreamVeraSans-Roman-65"/>
      <use x="193.603515625" xlink:href="#BitstreamVeraSans-Roman-6e"/>
      <use x="256.982421875" xlink:href="#BitstreamVeraSans-Roman-73"/>
      <use x="309.08203125" xlink:href="#BitstreamVeraSans-Roman-69"/>
      <use x="336.865234375" xlink:href="#BitstreamVeraSans-Roman-74"/>
      <use x="376.07421875" xlink:href="#BitstreamVeraSans-Roman-79"/>
     </g>
    </g>
   </g>
   <g id="patch_3">
    <path d="
M72 42.84
L518.4 42.84" style="fill:none;stroke:#000000;"/>
   </g>
   <g id="patch_4">
    <path d="
M518.4 385.56
L518.4 42.84" style="fill:none;stroke:#000000;"/>
   </g>
   <g id="patch_5">
    <path d="
M72 385.56
L518.4 385.56" style="fill:none;stroke:#000000;"/>
   </g>
   <g id="patch_6">
    <path d="
M72 385.56
L72 42.84" style="fill:none;stroke:#000000;"/>
   </g>
   <g id="text_15">
    <!-- Summary graph for NG12 G1 CD41 -->
    <defs>
     <path d="
M9.8125 72.9062
L23.0938 72.9062
L55.4219 11.9219
L55.4219 72.9062
L64.9844 72.9062
L64.9844 0
L51.7031 0
L19.3906 60.9844
L19.3906 0
L9.8125 0
z
" id="BitstreamVeraSans-Roman-4e"/>
     <path d="
M37.1094 75.9844
L37.1094 68.5
L28.5156 68.5
Q23.6875 68.5 21.7969 66.5469
Q19.9219 64.5938 19.9219 59.5156
L19.9219 54.6875
L34.7188 54.6875
L34.7188 47.7031
L19.9219 47.7031
L19.9219 0
L10.8906 0
L10.8906 47.7031
L2.29688 47.7031
L2.29688 54.6875
L10.8906 54.6875
L10.8906 58.5
Q10.8906 67.625 15.1406 71.7969
Q19.3906 75.9844 28.6094 75.9844
z
" id="BitstreamVeraSans-Roman-66"/>
     <path d="
M37.7969 64.3125
L12.8906 25.3906
L37.7969 25.3906
z

M35.2031 72.9062
L47.6094 72.9062
L47.6094 25.3906
L58.0156 25.3906
L58.0156 17.1875
L47.6094 17.1875
L47.6094 0
L37.7969 0
L37.7969 17.1875
L4.89062 17.1875
L4.89062 26.7031
z
" id="BitstreamVeraSans-Roman-34"/>
     <path d="
M34.2812 27.4844
Q23.3906 27.4844 19.1875 25
Q14.9844 22.5156 14.9844 16.5
Q14.9844 11.7188 18.1406 8.90625
Q21.2969 6.10938 26.7031 6.10938
Q34.1875 6.10938 38.7031 11.4062
Q43.2188 16.7031 43.2188 25.4844
L43.2188 27.4844
z

M52.2031 31.2031
L52.2031 0
L43.2188 0
L43.2188 8.29688
Q40.1406 3.32812 35.5469 0.953125
Q30.9531 -1.42188 24.3125 -1.42188
Q15.9219 -1.42188 10.9531 3.29688
Q6 8.01562 6 15.9219
Q6 25.1406 12.1719 29.8281
Q18.3594 34.5156 30.6094 34.5156
L43.2188 34.5156
L43.2188 35.4062
Q43.2188 41.6094 39.1406 45
Q35.0625 48.3906 27.6875 48.3906
Q23 48.3906 18.5469 47.2656
Q14.1094 46.1406 10.0156 43.8906
L10.0156 52.2031
Q14.9375 54.1094 19.5781 55.0469
Q24.2188 56 28.6094 56
Q40.4844 56 46.3438 49.8438
Q52.2031 43.7031 52.2031 31.2031" id="BitstreamVeraSans-Roman-61"/>
     <path d="
M59.5156 10.4062
L59.5156 29.9844
L43.4062 29.9844
L43.4062 38.0938
L69.2812 38.0938
L69.2812 6.78125
Q63.5781 2.73438 56.6875 0.65625
Q49.8125 -1.42188 42 -1.42188
Q24.9062 -1.42188 15.25 8.5625
Q5.60938 18.5625 5.60938 36.375
Q5.60938 54.25 15.25 64.2344
Q24.9062 74.2188 42 74.2188
Q49.125 74.2188 55.5469 72.4531
Q61.9688 70.7031 67.3906 67.2812
L67.3906 56.7812
Q61.9219 61.4219 55.7656 63.7656
Q49.6094 66.1094 42.8281 66.1094
Q29.4375 66.1094 22.7188 58.6406
Q16.0156 51.1719 16.0156 36.375
Q16.0156 21.625 22.7188 14.1562
Q29.4375 6.6875 42.8281 6.6875
Q48.0469 6.6875 52.1406 7.59375
Q56.25 8.5 59.5156 10.4062" id="BitstreamVeraSans-Roman-47"/>
     <path d="
M53.5156 70.5156
L53.5156 60.8906
Q47.9062 63.5781 42.9219 64.8906
Q37.9375 66.2188 33.2969 66.2188
Q25.25 66.2188 20.875 63.0938
Q16.5 59.9688 16.5 54.2031
Q16.5 49.3594 19.4062 46.8906
Q22.3125 44.4375 30.4219 42.9219
L36.375 41.7031
Q47.4062 39.5938 52.6562 34.2969
Q57.9062 29 57.9062 20.125
Q57.9062 9.51562 50.7969 4.04688
Q43.7031 -1.42188 29.9844 -1.42188
Q24.8125 -1.42188 18.9688 -0.25
Q13.1406 0.921875 6.89062 3.21875
L6.89062 13.375
Q12.8906 10.0156 18.6562 8.29688
Q24.4219 6.59375 29.9844 6.59375
Q38.4219 6.59375 43.0156 9.90625
Q47.6094 13.2344 47.6094 19.3906
Q47.6094 24.75 44.3125 27.7812
Q41.0156 30.8125 33.5 32.3281
L27.4844 33.5
Q16.4531 35.6875 11.5156 40.375
Q6.59375 45.0625 6.59375 53.4219
Q6.59375 63.0938 13.4062 68.6562
Q20.2188 74.2188 32.1719 74.2188
Q37.3125 74.2188 42.625 73.2812
Q47.9531 72.3594 53.5156 70.5156" id="BitstreamVeraSans-Roman-53"/>
     <path d="
M64.4062 67.2812
L64.4062 56.8906
Q59.4219 61.5312 53.7812 63.8125
Q48.1406 66.1094 41.7969 66.1094
Q29.2969 66.1094 22.6562 58.4688
Q16.0156 50.8281 16.0156 36.375
Q16.0156 21.9688 22.6562 14.3281
Q29.2969 6.6875 41.7969 6.6875
Q48.1406 6.6875 53.7812 8.98438
Q59.4219 11.2812 64.4062 15.9219
L64.4062 5.60938
Q59.2344 2.09375 53.4375 0.328125
Q47.6562 -1.42188 41.2188 -1.42188
Q24.6562 -1.42188 15.125 8.70312
Q5.60938 18.8438 5.60938 36.375
Q5.60938 53.9531 15.125 64.0781
Q24.6562 74.2188 41.2188 74.2188
Q47.75 74.2188 53.5312 72.4844
Q59.3281 70.75 64.4062 67.2812" id="BitstreamVeraSans-Roman-43"/>
     <path d="
M54.8906 33.0156
L54.8906 0
L45.9062 0
L45.9062 32.7188
Q45.9062 40.4844 42.875 44.3281
Q39.8438 48.1875 33.7969 48.1875
Q26.5156 48.1875 22.3125 43.5469
Q18.1094 38.9219 18.1094 30.9062
L18.1094 0
L9.07812 0
L9.07812 75.9844
L18.1094 75.9844
L18.1094 46.1875
Q21.3438 51.125 25.7031 53.5625
Q30.0781 56 35.7969 56
Q45.2188 56 50.0469 50.1719
Q54.8906 44.3438 54.8906 33.0156" id="BitstreamVeraSans-Roman-68"/>
     <path d="
M19.6719 64.7969
L19.6719 8.10938
L31.5938 8.10938
Q46.6875 8.10938 53.6875 14.9375
Q60.6875 21.7812 60.6875 36.5312
Q60.6875 51.1719 53.6875 57.9844
Q46.6875 64.7969 31.5938 64.7969
z

M9.8125 72.9062
L30.0781 72.9062
Q51.2656 72.9062 61.1719 64.0938
Q71.0938 55.2812 71.0938 36.5312
Q71.0938 17.6719 61.125 8.82812
Q51.1719 0 30.0781 0
L9.8125 0
z
" id="BitstreamVeraSans-Roman-44"/>
     <path d="
M45.4062 27.9844
Q45.4062 37.75 41.375 43.1094
Q37.3594 48.4844 30.0781 48.4844
Q22.8594 48.4844 18.8281 43.1094
Q14.7969 37.75 14.7969 27.9844
Q14.7969 18.2656 18.8281 12.8906
Q22.8594 7.51562 30.0781 7.51562
Q37.3594 7.51562 41.375 12.8906
Q45.4062 18.2656 45.4062 27.9844
M54.3906 6.78125
Q54.3906 -7.17188 48.1875 -13.9844
Q42 -20.7969 29.2031 -20.7969
Q24.4688 -20.7969 20.2656 -20.0938
Q16.0625 -19.3906 12.1094 -17.9219
L12.1094 -9.1875
Q16.0625 -11.3281 19.9219 -12.3438
Q23.7812 -13.375 27.7812 -13.375
Q36.625 -13.375 41.0156 -8.76562
Q45.4062 -4.15625 45.4062 5.17188
L45.4062 9.625
Q42.625 4.78125 38.2812 2.39062
Q33.9375 0 27.875 0
Q17.8281 0 11.6719 7.65625
Q5.51562 15.3281 5.51562 27.9844
Q5.51562 40.6719 11.6719 48.3281
Q17.8281 56 27.875 56
Q33.9375 56 38.2812 53.6094
Q42.625 51.2188 45.4062 46.3906
L45.4062 54.6875
L54.3906 54.6875
z
" id="BitstreamVeraSans-Roman-67"/>
     <path d="
M8.5 21.5781
L8.5 54.6875
L17.4844 54.6875
L17.4844 21.9219
Q17.4844 14.1562 20.5 10.2656
Q23.5312 6.39062 29.5938 6.39062
Q36.8594 6.39062 41.0781 11.0312
Q45.3125 15.6719 45.3125 23.6875
L45.3125 54.6875
L54.2969 54.6875
L54.2969 0
L45.3125 0
L45.3125 8.40625
Q42.0469 3.42188 37.7188 1
Q33.4062 -1.42188 27.6875 -1.42188
Q18.2656 -1.42188 13.375 4.4375
Q8.5 10.2969 8.5 21.5781" id="BitstreamVeraSans-Roman-75"/>
     <path d="
M41.1094 46.2969
Q39.5938 47.1719 37.8125 47.5781
Q36.0312 48 33.8906 48
Q26.2656 48 22.1875 43.0469
Q18.1094 38.0938 18.1094 28.8125
L18.1094 0
L9.07812 0
L9.07812 54.6875
L18.1094 54.6875
L18.1094 46.1875
Q20.9531 51.1719 25.4844 53.5781
Q30.0312 56 36.5312 56
Q37.4531 56 38.5781 55.875
Q39.7031 55.7656 41.0625 55.5156
z
" id="BitstreamVeraSans-Roman-72"/>
     <path d="
M18.1094 8.20312
L18.1094 -20.7969
L9.07812 -20.7969
L9.07812 54.6875
L18.1094 54.6875
L18.1094 46.3906
Q20.9531 51.2656 25.2656 53.625
Q29.5938 56 35.5938 56
Q45.5625 56 51.7812 48.0938
Q58.0156 40.1875 58.0156 27.2969
Q58.0156 14.4062 51.7812 6.48438
Q45.5625 -1.42188 35.5938 -1.42188
Q29.5938 -1.42188 25.2656 0.953125
Q20.9531 3.32812 18.1094 8.20312
M48.6875 27.2969
Q48.6875 37.2031 44.6094 42.8438
Q40.5312 48.4844 33.4062 48.4844
Q26.2656 48.4844 22.1875 42.8438
Q18.1094 37.2031 18.1094 27.2969
Q18.1094 17.3906 22.1875 11.75
Q26.2656 6.10938 33.4062 6.10938
Q40.5312 6.10938 44.6094 11.75
Q48.6875 17.3906 48.6875 27.2969" id="BitstreamVeraSans-Roman-70"/>
    </defs>
    <g transform="translate(168.631875 37.84)scale(0.144 -0.144)">
     <use xlink:href="#BitstreamVeraSans-Roman-53"/>
     <use x="63.4765625" xlink:href="#BitstreamVeraSans-Roman-75"/>
     <use x="126.85546875" xlink:href="#BitstreamVeraSans-Roman-6d"/>
     <use x="224.267578125" xlink:href="#BitstreamVeraSans-Roman-6d"/>
     <use x="321.6796875" xlink:href="#BitstreamVeraSans-Roman-61"/>
     <use x="382.958984375" xlink:href="#BitstreamVeraSans-Roman-72"/>
     <use x="424.072265625" xlink:href="#BitstreamVeraSans-Roman-79"/>
     <use x="483.251953125" xlink:href="#BitstreamVeraSans-Roman-20"/>
     <use x="515.0390625" xlink:href="#BitstreamVeraSans-Roman-67"/>
     <use x="578.515625" xlink:href="#BitstreamVeraSans-Roman-72"/>
     <use x="619.62890625" xlink:href="#BitstreamVeraSans-Roman-61"/>
     <use x="680.908203125" xlink:href="#BitstreamVeraSans-Roman-70"/>
     <use x="744.384765625" xlink:href="#BitstreamVeraSans-Roman-68"/>
     <use x="807.763671875" xlink:href="#BitstreamVeraSans-Roman-20"/>
     <use x="839.55078125" xlink:href="#BitstreamVeraSans-Roman-66"/>
     <use x="874.755859375" xlink:href="#BitstreamVeraSans-Roman-6f"/>
     <use x="935.9375" xlink:href="#BitstreamVeraSans-Roman-72"/>
     <use x="977.05078125" xlink:href="#BitstreamVeraSans-Roman-20"/>
     <use x="1008.83789062" xlink:href="#BitstreamVeraSans-Roman-4e"/>
     <use x="1083.64257812" xlink:href="#BitstreamVeraSans-Roman-47"/>
     <use x="1161.1328125" xlink:href="#BitstreamVeraSans-Roman-31"/>
     <use x="1224.75585938" xlink:href="#BitstreamVeraSans-Roman-32"/>
     <use x="1288.37890625" xlink:href="#BitstreamVeraSans-Roman-20"/>
     <use x="1320.16601562" xlink:href="#BitstreamVeraSans-Roman-47"/>
     <use x="1397.65625" xlink:href="#BitstreamVeraSans-Roman-31"/>
     <use x="1461.27929688" xlink:href="#BitstreamVeraSans-Roman-20"/>
     <use x="1493.06640625" xlink:href="#BitstreamVeraSans-Roman-43"/>
     <use x="1562.890625" xlink:href="#BitstreamVeraSans-Roman-44"/>
     <use x="1639.89257812" xlink:href="#BitstreamVeraSans-Roman-34"/>
     <use x="1703.515625" xlink:href="#BitstreamVeraSans-Roman-31"/>
    </g>
   </g>
  </g>
 </g>
 <defs>
  <clipPath id="p495b02252e">
   <rect height="342.72" width="446.4" x="72.0" y="42.84"/>
  </clipPath>
 </defs>
</svg>
